<?xml version="1.0" standalone="no"?><!DOCTYPE svg PUBLIC "-//W3C//DTD SVG 1.1//EN" "http://www.w3.org/Graphics/SVG/1.1/DTD/svg11.dtd"><svg t="1690439768075" class="icon" viewBox="0 0 1024 1024" version="1.1" xmlns="http://www.w3.org/2000/svg" p-id="28849" xmlns:xlink="http://www.w3.org/1999/xlink" width="200" height="200"><path d="M721.792638 451.764706l141.910269 134.25324-265.443669 281.778664-142.420738-134.763709 265.954138-281.268195m0-71.976072L409.896327 705.978066a40.327019 40.327019 0 0 0 0 56.662014l158.245264 149.567298a40.837488 40.837488 0 0 0 27.565304 10.71984 38.285145 38.285145 0 0 0 29.09671-12.761715l306.281157-326.189431-216.438684-204.187438z" fill="#333333" p-id="28850"></path><path d="M425.720853 793.778664l113.834497 107.198405-112.813559 60.235294-54.62014-51.04686 53.599202-115.87637M409.896327 708.01994l-99.541376 213.375873 108.219342 102.093718 207.250249-111.282153-215.928215-204.187438zM847.878381 336.909272a41.858425 41.858425 0 0 1 28.075773 11.230309l82.695912 78.101695a43.389831 43.389831 0 0 1 12.761715 28.586241 38.285145 38.285145 0 0 1-11.230309 29.09671l-55.130609 58.703889L762.630126 408.374875 818.271202 349.670987a41.858425 41.858425 0 0 1 30.117647-12.761715m0-51.046859a91.884347 91.884347 0 0 0-66.871385 28.586241L690.654054 408.374875l216.438684 204.187438 90.352941-95.457627a91.884347 91.884347 0 0 0-3.57328-129.659023l-83.206381-76.570289a90.86341 90.86341 0 0 0-62.787637-25.012961zM103.61517 51.046859h816.749751v51.04686H103.61517zM103.61517 102.093719v816.749751H52.568311V102.093719z" fill="#333333" p-id="28851"></path><path d="M78.091741 76.570289m-76.570289 0a76.570289 76.570289 0 1 0 153.140578 0 76.570289 76.570289 0 1 0-153.140578 0Z" fill="#333333" p-id="28852"></path><path d="M78.091741 944.366899m-76.570289 0a76.570289 76.570289 0 1 0 153.140578 0 76.570289 76.570289 0 1 0-153.140578 0Z" fill="#333333" p-id="28853"></path><path d="M945.888351 76.570289m-76.570289 0a76.570289 76.570289 0 1 0 153.140578 0 76.570289 76.570289 0 1 0-153.140578 0Z" fill="#333333" p-id="28854"></path></svg>