<?xml version="1.0" standalone="no"?><!DOCTYPE svg PUBLIC "-//W3C//DTD SVG 1.1//EN" "http://www.w3.org/Graphics/SVG/1.1/DTD/svg11.dtd"><svg t="1690508645704" class="icon" viewBox="0 0 1024 1024" version="1.1" xmlns="http://www.w3.org/2000/svg" p-id="1625" xmlns:xlink="http://www.w3.org/1999/xlink" width="200" height="200"><path d="M980.8 438.4c-1.6-15.2-8-29.6-20-39.2l-79.2-68c-24-20-60-17.6-80 5.6l-360 416c-5.6 7.2-10.4 16-12 24v0.8L412.8 880l-0.8 2.4c-3.2 29.6 16.8 56.8 46.4 63.2 1.6 0 3.2 0.8 4.8 0.8 7.2 0.8 14.4 0 20.8-1.6l98.4-32.8c8.8-2.4 16.8-7.2 23.2-13.6L968 480c8-11.2 13.6-26.4 12.8-41.6z m-428 400l-56.8 19.2 10.4-57.6 252.8-292.8 45.6 40.8-252 290.4zM856 488l-45.6-40.8 36-41.6 46.4 40L856 488z" p-id="1626" fill="#ffffff"></path><path d="M148 809.6V214.4c31.2-11.2 56-35.2 66.4-66.4h594.4c15.2 42.4 55.2 73.6 103.2 73.6 60 0 109.6-48.8 109.6-109.6S972.8 2.4 912 2.4c-47.2 0-88 30.4-103.2 72H214.4C200 32 159.2 1.6 111.2 1.6 51.2 1.6 2.4 51.2 2.4 111.2c0 47.2 30.4 88 72.8 103.2v595.2c-42.4 15.2-72.8 55.2-72.8 103.2 0 60 48.8 109.6 109.6 109.6 48 0 88-30.4 103.2-72.8h79.2v-72.8h-79.2c-11.2-31.2-36-56-67.2-67.2z" p-id="1627" fill="#ffffff"></path></svg>