<?xml version="1.0" standalone="no"?><!DOCTYPE svg PUBLIC "-//W3C//DTD SVG 1.1//EN" "http://www.w3.org/Graphics/SVG/1.1/DTD/svg11.dtd"><svg t="1690508759000" class="icon" viewBox="0 0 1024 1024" version="1.1" xmlns="http://www.w3.org/2000/svg" p-id="5374" xmlns:xlink="http://www.w3.org/1999/xlink" width="200" height="200"><path d="M247.741935 292.665806l6.606452 23.783226h429.419355c13.212903 0 23.783226 10.570323 23.783226 23.783226v429.419355c0 13.212903-10.570323 23.783226-23.783226 23.783226h-429.419355c-13.212903 0-23.783226-10.570323-23.783226-23.783226v-429.419355c0-13.212903 10.570323-23.783226 23.783226-23.783226l6.606452-23.783226-6.606452-23.783225c-39.63871 0-71.349677 31.710968-71.349677 71.349677v429.419355c0 39.63871 31.710968 71.349677 71.349677 71.349677h429.419355c39.63871 0 71.349677-31.710968 71.349677-71.349677v-429.419355c0-39.63871-31.710968-71.349677-71.349677-71.349677h-429.419355v23.783225h-6.606452z" p-id="5375"></path><path d="M349.48129 221.316129h429.419355c13.212903 0 23.783226 10.570323 23.783226 23.783226v429.419355c0 13.212903 10.570323 23.783226 23.783226 23.783225s23.783226-10.570323 23.783226-23.783225v-429.419355c0-39.63871-31.710968-71.349677-71.349678-71.349678h-429.419355c-13.212903 0-23.783226 10.570323-23.783225 23.783226s10.570323 23.783226 23.783225 23.783226z" p-id="5376"></path><path d="M375.246452 388.459355l6.606451 23.783226c21.80129 0 39.63871 17.837419 39.63871 39.638709s-17.837419 39.63871-39.63871 39.63871-39.63871-17.837419-39.638709-39.63871 17.837419-39.63871 39.638709-39.638709l6.606452-23.783226-6.606452-23.783226c-48.227097 0-87.205161 38.978065-87.205161 87.205161 0 48.227097 38.978065 87.205161 87.205161 87.205162S469.058065 500.108387 469.058065 451.88129s-38.978065-87.205161-87.205162-87.205161v23.783226h-6.606451z" p-id="5377"></path><path d="M336.268387 737.28l62.76129-75.313548 60.779355 60.779354c9.249032 9.249032 24.443871 9.249032 33.692903 0 9.249032-9.249032 9.249032-24.443871 0-33.692903L395.726452 591.277419 299.932903 706.890323c-8.588387 9.909677-7.267097 25.104516 3.303226 33.692903 9.249032 7.927742 24.443871 6.606452 33.032258-3.303226z" p-id="5378"></path><path d="M495.483871 722.745806l60.11871-72.010322L632.898065 753.135484c7.927742 10.570323 23.122581 12.552258 33.692903 4.624516 10.570323-7.927742 12.552258-23.122581 4.624516-33.692903L557.584516 573.44l-99.096774 118.255484c-8.588387 9.909677-7.267097 25.104516 3.303226 33.692903 9.909677 8.588387 25.104516 7.267097 33.692903-2.642581z" p-id="5379"></path></svg>