<?xml version="1.0" standalone="no"?><!DOCTYPE svg PUBLIC "-//W3C//DTD SVG 1.1//EN" "http://www.w3.org/Graphics/SVG/1.1/DTD/svg11.dtd"><svg t="1690340921818" class="icon" viewBox="0 0 1024 1024" version="1.1" xmlns="http://www.w3.org/2000/svg" p-id="1625" xmlns:xlink="http://www.w3.org/1999/xlink" width="200" height="200"><path d="M869.973333 504.32l-347.733333-347.733333L469.333333 213.333333 414.293333 160.426667a28.16 28.16 0 0 0-40.106666 40.106666l55.466666 55.466667L170.666667 538.026667a53.333333 53.333333 0 0 0 0 74.666666l243.2 243.626667a55.466667 55.466667 0 0 0 38.4 15.786667 54.613333 54.613333 0 0 0 36.266666-14.506667l322.56-298.666667v227.84h59.733334v-282.026666z m-242.346666-130.56l-128-128 24.32-26.453333 282.453333 282.453333-573.866667 32 228.266667-246.186667 128 128a28.16 28.16 0 1 0 40.106667-40.106666z" p-id="1626"></path></svg>