<?xml version="1.0" encoding="UTF-8"?>
<svg width="24px" height="24px" viewBox="0 0 24 24" version="1.1" xmlns="http://www.w3.org/2000/svg" xmlns:xlink="http://www.w3.org/1999/xlink">
    <title>编辑</title>
    <g id="StoryMap-首页" stroke="none" stroke-width="1" fill="none" fill-rule="evenodd">
        <g id="绘图" transform="translate(-85.000000, -15.000000)" fill="#000000" fill-rule="nonzero">
            <g id="编辑-2" transform="translate(85.000000, 15.000000)">
                <g id="编辑" transform="translate(3.000000, 3.000000)">
                    <path d="M7.65978863,0.0282036933 C8.01610468,0.0282036933 8.30397584,0.316284275 8.30397584,0.672859541 C8.30397584,1.02943481 8.01610468,1.31751539 7.65978863,1.31751539 L3.26119779,1.31751539 C2.17413186,1.31751539 1.28837443,2.20391718 1.28837443,3.29177392 L1.28837443,14.7364298 C1.28837443,15.8242865 2.17413186,16.7106883 3.26119779,16.7106883 L14.697534,16.7106883 C15.7845999,16.7106883 16.6703573,15.8242865 16.6703573,14.7364298 L16.6703573,10.5441522 C16.6703573,10.1875769 16.9582285,9.89949636 17.3145445,9.89949636 C17.6708606,9.89949636 17.9587318,10.1875769 17.9587318,10.5441522 L17.9587318,14.7364298 C17.9587318,16.5354225 16.4952189,18 14.697534,18 L3.26119779,18 C1.46351283,18 3.55271368e-14,16.5354225 3.55271368e-14,14.7364298 L3.55271368e-14,3.29177392 C3.55271368e-14,1.4927812 1.46351283,0.0282036933 3.26119779,0.0282036933 L7.65978863,0.0282036933 Z M15.2068445,0 C15.740312,0 16.2415702,0.207498601 16.616004,0.584219362 L17.4172119,1.38601007 C18.1942627,2.16362619 18.1942627,3.42674874 17.4172119,4.20436486 L9.60040262,12.0228316 C9.47559134,12.1497482 9.31051837,12.2121992 9.1454454,12.2121992 C9.0621912,12.2121992 8.978937,12.1963138 8.90084795,12.1642844 L5.80573729,12.9918299 C5.74937091,13.0059317 5.69501761,13.0139899 5.63865123,13.0139899 C5.46955209,13.0139899 5.3064922,12.9475098 5.18369401,12.8246223 C5.02063412,12.6614438 4.95822849,12.4237269 5.01660795,12.2021265 L5.84396758,9.10336365 C5.74879118,8.86999535 5.79576927,8.59195624 5.98490186,8.40268607 L12.7921804,1.58944841 C12.8002661,1.58055155 12.8086435,1.57182804 12.8173125,1.56329043 L12.839,1.544 L13.799698,0.584219362 C13.9748364,0.408953553 14.4640161,0 15.2068445,0 Z M6.882,10.213 L6.54856568,11.4587577 L7.794,11.125 L6.882,10.213 Z M13.265,2.939 L7.402,8.808 L9.196,10.603 L15.043,4.752 L13.265,2.939 Z M15.2068445,1.2893117 C14.9370911,1.2893117 14.7579265,1.44644656 14.7096125,1.49479575 L14.177,2.027 L15.956,3.839 L16.5052843,3.28975937 C16.7790639,3.01578064 16.7790639,2.57056519 16.5052843,2.29658646 L15.7040765,1.49479575 L15.7020634,1.4927812 C15.5712129,1.36183548 15.3960745,1.2893117 15.2068445,1.2893117 Z" id="形状结合"></path>
                </g>
            </g>
        </g>
    </g>
</svg>