<?xml version="1.0" encoding="UTF-8"?>
<svg width="24px" height="24px" viewBox="0 0 24 24" version="1.1" xmlns="http://www.w3.org/2000/svg" xmlns:xlink="http://www.w3.org/1999/xlink">
    <title>文件夹 (1)</title>
    <g id="StoryMap-首页" stroke="none" stroke-width="1" fill="none" fill-rule="evenodd">
        <g id="绘图" transform="translate(-28.000000, -14.000000)" fill="#000000" fill-rule="nonzero" stroke="#000000" stroke-width="0.2">
            <g id="文件夹-(1)-2" transform="translate(28.000000, 14.000000)">
                <g id="文件夹-(1)" transform="translate(1.000000, 3.000000)">
                    <path d="M9.426375,0 C9.93616215,0 10.4110483,0.258937249 10.6872,0.68745 L12.177525,3 L19.5,3 C20.3284125,3 21,3.6715875 21,4.5 L21,16.5 C21,17.3284125 20.3284125,18 19.5,18 L1.5,18 C0.6715875,18 0,17.3284125 0,16.5 L0,1.5 C0,0.6715875 0.6715875,0 1.5,0 L9.426375,0 Z M19.5,4.125 L1.5,4.125 C1.2928875,4.125 1.125,4.2928875 1.125,4.5 L1.125,16.5 C1.125,16.7071125 1.2928875,16.875 1.5,16.875 L19.5,16.875 C19.7071125,16.875 19.875,16.7071125 19.875,16.5 L19.875,4.5 C19.875,4.2928875 19.7071125,4.125 19.5,4.125 Z M9.426375,1.125 L1.5,1.125 C1.2928875,1.125 1.125,1.2928875 1.125,1.5 L1.125,3.04725 C1.2475133,3.01578066 1.3735096,2.99990513 1.5,3 L10.83915,3 L9.7415625,1.2968625 C9.67481035,1.19327988 9.56142855,1.12910309 9.4382625,1.1251875 L9.4263375,1.125 L9.426375,1.125 Z" id="形状"></path>
                </g>
            </g>
        </g>
    </g>
</svg>